<mxfile host="app.diagrams.net" agent="Mozilla/5.0 (Windows NT 10.0; Win64; x64) AppleWebKit/537.36 (KHTML, like Gecko) Chrome/118.0.0.0 Safari/537.36" version="27.2.0">
  <diagram name="第 1 页" id="GbfVTRuGF-nmtSaCurBT">
    <mxGraphModel dx="1025" dy="447" grid="1" gridSize="10" guides="1" tooltips="1" connect="1" arrows="1" fold="1" page="1" pageScale="1" pageWidth="827" pageHeight="1169" math="0" shadow="0">
      <root>
        <mxCell id="0" />
        <mxCell id="1" parent="0" />
        <mxCell id="p78ZUygbK0Bv5vw0BV7t-17" style="edgeStyle=orthogonalEdgeStyle;rounded=0;orthogonalLoop=1;jettySize=auto;html=1;exitX=1;exitY=0.5;exitDx=0;exitDy=0;entryX=0;entryY=0.5;entryDx=0;entryDy=0;" parent="1" source="p78ZUygbK0Bv5vw0BV7t-1" target="p78ZUygbK0Bv5vw0BV7t-3" edge="1">
          <mxGeometry relative="1" as="geometry" />
        </mxCell>
        <mxCell id="p78ZUygbK0Bv5vw0BV7t-18" style="edgeStyle=orthogonalEdgeStyle;rounded=0;orthogonalLoop=1;jettySize=auto;html=1;exitX=1;exitY=0.5;exitDx=0;exitDy=0;entryX=0;entryY=0.5;entryDx=0;entryDy=0;" parent="1" source="p78ZUygbK0Bv5vw0BV7t-1" target="p78ZUygbK0Bv5vw0BV7t-4" edge="1">
          <mxGeometry relative="1" as="geometry" />
        </mxCell>
        <mxCell id="p78ZUygbK0Bv5vw0BV7t-19" style="edgeStyle=orthogonalEdgeStyle;rounded=0;orthogonalLoop=1;jettySize=auto;html=1;exitX=1;exitY=0.5;exitDx=0;exitDy=0;entryX=0;entryY=0.5;entryDx=0;entryDy=0;" parent="1" source="p78ZUygbK0Bv5vw0BV7t-1" target="p78ZUygbK0Bv5vw0BV7t-5" edge="1">
          <mxGeometry relative="1" as="geometry" />
        </mxCell>
        <mxCell id="p78ZUygbK0Bv5vw0BV7t-20" style="edgeStyle=orthogonalEdgeStyle;rounded=0;orthogonalLoop=1;jettySize=auto;html=1;exitX=1;exitY=0.5;exitDx=0;exitDy=0;entryX=0;entryY=0.5;entryDx=0;entryDy=0;" parent="1" source="p78ZUygbK0Bv5vw0BV7t-1" target="p78ZUygbK0Bv5vw0BV7t-6" edge="1">
          <mxGeometry relative="1" as="geometry" />
        </mxCell>
        <mxCell id="p78ZUygbK0Bv5vw0BV7t-21" style="edgeStyle=orthogonalEdgeStyle;rounded=0;orthogonalLoop=1;jettySize=auto;html=1;exitX=1;exitY=0.5;exitDx=0;exitDy=0;entryX=0;entryY=0.5;entryDx=0;entryDy=0;" parent="1" source="p78ZUygbK0Bv5vw0BV7t-1" target="p78ZUygbK0Bv5vw0BV7t-15" edge="1">
          <mxGeometry relative="1" as="geometry" />
        </mxCell>
        <mxCell id="p78ZUygbK0Bv5vw0BV7t-1" value="" style="rounded=1;whiteSpace=wrap;html=1;fillColor=#33FFFF;shadow=1;" parent="1" vertex="1">
          <mxGeometry x="170" y="390" width="80" height="60" as="geometry" />
        </mxCell>
        <mxCell id="p78ZUygbK0Bv5vw0BV7t-2" value="AQS" style="text;strokeColor=none;align=center;fillColor=none;html=1;verticalAlign=middle;whiteSpace=wrap;rounded=0;" parent="1" vertex="1">
          <mxGeometry x="190" y="405" width="40" height="30" as="geometry" />
        </mxCell>
        <mxCell id="p78ZUygbK0Bv5vw0BV7t-3" value="" style="rounded=1;whiteSpace=wrap;html=1;fillColor=#CCFFFF;shadow=1;" parent="1" vertex="1">
          <mxGeometry x="390" y="170" width="120" height="60" as="geometry" />
        </mxCell>
        <mxCell id="p78ZUygbK0Bv5vw0BV7t-4" value="" style="rounded=1;whiteSpace=wrap;html=1;fillColor=#99FFFF;shadow=1;" parent="1" vertex="1">
          <mxGeometry x="390" y="280" width="120" height="60" as="geometry" />
        </mxCell>
        <mxCell id="p78ZUygbK0Bv5vw0BV7t-5" value="" style="rounded=1;whiteSpace=wrap;html=1;fillColor=#66FFFF;shadow=1;" parent="1" vertex="1">
          <mxGeometry x="390" y="390" width="120" height="60" as="geometry" />
        </mxCell>
        <mxCell id="p78ZUygbK0Bv5vw0BV7t-6" value="" style="rounded=1;whiteSpace=wrap;html=1;fillColor=#99FFFF;shadow=1;" parent="1" vertex="1">
          <mxGeometry x="390" y="500" width="150" height="60" as="geometry" />
        </mxCell>
        <mxCell id="p78ZUygbK0Bv5vw0BV7t-10" value="ReentrantLock" style="text;strokeColor=none;align=center;fillColor=none;html=1;verticalAlign=middle;whiteSpace=wrap;rounded=0;" parent="1" vertex="1">
          <mxGeometry x="410" y="185" width="80" height="30" as="geometry" />
        </mxCell>
        <mxCell id="p78ZUygbK0Bv5vw0BV7t-11" value="Semaphore" style="text;strokeColor=none;align=center;fillColor=none;html=1;verticalAlign=middle;whiteSpace=wrap;rounded=0;" parent="1" vertex="1">
          <mxGeometry x="415" y="295" width="70" height="30" as="geometry" />
        </mxCell>
        <mxCell id="p78ZUygbK0Bv5vw0BV7t-12" value="CountDownLatch" style="text;strokeColor=none;align=center;fillColor=none;html=1;verticalAlign=middle;whiteSpace=wrap;rounded=0;" parent="1" vertex="1">
          <mxGeometry x="400" y="405" width="100" height="30" as="geometry" />
        </mxCell>
        <mxCell id="p78ZUygbK0Bv5vw0BV7t-13" value="ReentrantReadWriteLock" style="text;strokeColor=none;align=center;fillColor=none;html=1;verticalAlign=middle;whiteSpace=wrap;rounded=0;" parent="1" vertex="1">
          <mxGeometry x="395" y="515" width="140" height="30" as="geometry" />
        </mxCell>
        <mxCell id="p78ZUygbK0Bv5vw0BV7t-15" value="" style="rounded=1;whiteSpace=wrap;html=1;fillColor=#CCFFFF;shadow=1;" parent="1" vertex="1">
          <mxGeometry x="390" y="610" width="150" height="60" as="geometry" />
        </mxCell>
        <mxCell id="p78ZUygbK0Bv5vw0BV7t-16" value="ThreadPoolExecutor&lt;div&gt;.Worker&lt;/div&gt;" style="text;strokeColor=none;align=center;fillColor=none;html=1;verticalAlign=middle;whiteSpace=wrap;rounded=0;" parent="1" vertex="1">
          <mxGeometry x="410" y="625" width="110" height="30" as="geometry" />
        </mxCell>
      </root>
    </mxGraphModel>
  </diagram>
</mxfile>
